D:\school\WTK\thesis\model\3dpredictsim\Results\debug_batch\Pog_s1_tmt_aCst_d05_k800_ig24_act_TTC_GRF.mot
nRows=17
nColumns=19

name D:\school\WTK\thesis\model\3dpredictsim\Results\debug_batch\Pog_s1_tmt_aCst_d05_k800_ig24_act_TTC_GRF.mot
datacolumns 19
datarows 17
range 0.0000000000 0.2016329017
endheader
time 	ground_force_vx	ground_force_vy	ground_force_vz	ground_force_px	ground_force_py	ground_force_pz	1_ground_force_vx	1_ground_force_vy	1_ground_force_vz	1_ground_force_px	1_ground_force_py	1_ground_force_pz	ground_torque_x	ground_torque_y	ground_torque_z	1_ground_torque_x	1_ground_torque_y	1_ground_torque_z
        0.0000000000	      -35.2203613467	       28.3009300449	        9.5852327013	        0.2071161852	        0.0000000000	        0.0521998234	      109.5611896435	      431.4751711505	       -0.8400008926	       -0.3600436591	        0.0000000000	       -0.0344278561	        0.0000000000	        0.0000000000	        0.0000000000	        0.0000000000	        0.0000000000	        0.0000000000	
        0.0126020564	     -109.8713152471	      115.2024218630	       44.2906743116	        0.2147919009	        0.0000000000	        0.0502411448	       74.0341609174	      328.6033385211	       -6.7740151337	       -0.3519977424	        0.0000000000	       -0.0312415909	        0.0000000000	        0.0000000000	        0.0000000000	        0.0000000000	        0.0000000000	        0.0000000000	
        0.0252041127	      -59.7604402594	      312.0077013221	       14.4931452710	        0.2200085575	        0.0000000000	        0.0482395760	       39.0265393167	      216.7155566324	      -13.7836204474	       -0.3379498409	        0.0000000000	       -0.0253033170	        0.0000000000	        0.0000000000	        0.0000000000	        0.0000000000	        0.0000000000	        0.0000000000	
        0.0378061691	      -64.4705654472	      528.6087342662	       -6.5891064898	        0.2229629878	        0.0000000000	        0.0480603142	       24.3796496533	      169.0334441746	      -14.4367588989	       -0.3328818461	        0.0000000000	       -0.0228486862	        0.0000000000	        0.0000000000	        0.0000000000	        0.0000000000	        0.0000000000	        0.0000000000	
        0.0504082254	     -114.8750486769	      746.1058850853	      -15.9388604642	        0.2315426500	        0.0000000000	        0.0499106719	       19.2332372599	      125.2838839098	      -16.6478450460	       -0.3324971352	        0.0000000000	       -0.0231049321	        0.0000000000	        0.0000000000	        0.0000000000	        0.0000000000	        0.0000000000	        0.0000000000	
        0.0630102818	     -151.0551172423	      888.7215021660	      -21.0185864148	        0.2400325403	        0.0000000000	        0.0518258097	        6.4801327247	       70.5212802889	      -15.7613638082	       -0.3325183269	        0.0000000000	       -0.0234741245	        0.0000000000	        0.0000000000	        0.0000000000	        0.0000000000	        0.0000000000	        0.0000000000	
        0.0756123381	     -157.0948023969	      913.0420619008	      -21.5176314182	        0.2455282314	        0.0000000000	        0.0529181220	       -6.9887031309	       12.8176155266	       -3.7789686967	       -0.3358135406	        0.0000000000	       -0.0232260212	        0.0000000000	        0.0000000000	        0.0000000000	        0.0000000000	        0.0000000000	        0.0000000000	
        0.0882143945	     -142.2742773661	      875.7594768661	      -20.6992752797	        0.2495376464	        0.0000000000	        0.0535519846	        0.0212928597	       -0.0177640856	       -0.0008165343	        0.0000000000	        0.0000000000	        0.0000000000	        0.0000000000	        0.0000000000	        0.0000000000	        0.0000000000	        0.0000000000	        0.0000000000	
        0.1008164508	     -123.1163379023	      815.1202436461	      -19.6038529471	        0.2532833016	        0.0000000000	        0.0538906635	        0.2340392646	       -0.1655114364	       -0.0164802077	        0.0000000000	        0.0000000000	        0.0000000000	        0.0000000000	        0.0000000000	        0.0000000000	        0.0000000000	        0.0000000000	        0.0000000000	
        0.1134185072	     -108.9118981496	      763.7852251508	      -17.9577815650	        0.2571698334	        0.0000000000	        0.0539702225	       -1.4917698705	        0.9267028500	        0.1244122441	        0.0000000000	        0.0000000000	        0.0000000000	        0.0000000000	        0.0000000000	        0.0000000000	        0.0000000000	        0.0000000000	        0.0000000000	
        0.1260205635	      -96.1088371171	      728.3615535890	      -17.1049828738	        0.2614069338	        0.0000000000	        0.0538772801	       -1.5142101158	        0.8581862483	        0.1278942269	        0.0000000000	        0.0000000000	        0.0000000000	        0.0000000000	        0.0000000000	        0.0000000000	        0.0000000000	        0.0000000000	        0.0000000000	
        0.1386226199	      -85.8275630126	      701.7474981513	      -17.7764996327	        0.2663148695	        0.0000000000	        0.0535811232	       -1.1354794222	        0.6004902975	        0.0956585396	        0.0000000000	        0.0000000000	        0.0000000000	        0.0000000000	        0.0000000000	        0.0000000000	        0.0000000000	        0.0000000000	        0.0000000000	
        0.1512246763	      -75.9871374780	      677.7840672735	      -18.5927031794	        0.2712948710	        0.0000000000	        0.0532406399	       -0.7332226929	        0.3693419586	        0.0586990081	        0.0000000000	        0.0000000000	        0.0000000000	        0.0000000000	        0.0000000000	        0.0000000000	        0.0000000000	        0.0000000000	        0.0000000000	
        0.1638267326	      -66.1384187041	      654.7450093236	      -19.4418531710	        0.2759671712	        0.0000000000	        0.0529808404	       -0.5038443027	        0.2437724536	        0.0391554179	        0.0000000000	        0.0000000000	        0.0000000000	        0.0000000000	        0.0000000000	        0.0000000000	        0.0000000000	        0.0000000000	        0.0000000000	
        0.1764287890	      -57.0051926918	      634.1762879509	      -19.7609913641	        0.2804332648	        0.0000000000	        0.0528157476	       -0.3946640927	        0.1845057238	        0.0298783789	        0.0000000000	        0.0000000000	        0.0000000000	        0.0000000000	        0.0000000000	        0.0000000000	        0.0000000000	        0.0000000000	        0.0000000000	
        0.1890308453	      -48.7861511127	      616.7845212023	      -20.1441139380	        0.2848723771	        0.0000000000	        0.0526977932	       -0.3540984737	        0.1608725164	        0.0262045481	        0.0000000000	        0.0000000000	        0.0000000000	        0.0000000000	        0.0000000000	        0.0000000000	        0.0000000000	        0.0000000000	        0.0000000000	
        0.2016329017	      -41.5554615742	      602.6314640123	      -20.1195522408	        0.2893929286	        0.0000000000	        0.0525998730	       -0.3580415646	        0.1587026315	        0.0257964989	        0.0000000000	        0.0000000000	        0.0000000000	        0.0000000000	        0.0000000000	        0.0000000000	        0.0000000000	        0.0000000000	        0.0000000000	
